# xmcd
#
# Track frame offsets: 
#        150
#        18747
#        35143
#        55843
#        75293
#        91762
#
# Disc length: 1430 seconds
#
# Revision: 0
# Processed by: cddbd v1.5.2PL0 Copyright (c) Steve Scherf et al.
# Submitted via: ExactAudioCopy v0.95b4
#
DISCID=3e059406
DTITLE=The Real Nasty - The Sticks
DYEAR=2010
DGENRE=Country
TTITLE0=The Surprise
TTITLE1=Bad Medicine
TTITLE2=Never The Plan
TTITLE3=Words From The Bottle
TTITLE4=A Pretty Nice Place
TTITLE5=Lay It All Out
EXTD=
EXTT0=
EXTT1=
EXTT2=
EXTT3=
EXTT4=
EXTT5=
PLAYORDER=
